<svg width="52" height="52" viewBox="0 0 52 52" fill="none" xmlns="http://www.w3.org/2000/svg">
<path d="M0 26C0 11.6406 11.6406 0 26 0C40.3594 0 52 11.6406 52 26C52 40.3594 40.3594 52 26 52C11.6406 52 0 40.3594 0 26Z" fill="#DC3545"/>
<path d="M21.125 18.2857C22.0238 18.2857 22.75 17.5516 22.75 16.6429C22.75 15.7342 22.0238 15 21.125 15H17.875C15.1836 15 13 17.2076 13 19.9286V33.0714C13 35.7924 15.1836 38 17.875 38H21.125C22.0238 38 22.75 37.2659 22.75 36.3571C22.75 35.4484 22.0238 34.7143 21.125 34.7143H17.875C16.9762 34.7143 16.25 33.9801 16.25 33.0714V19.9286C16.25 19.0199 16.9762 18.2857 17.875 18.2857H21.125ZM38.6191 27.3933C38.8629 27.1623 39 26.8388 39 26.5C39 26.1612 38.8629 25.8377 38.6191 25.6067L31.3066 18.6246C30.9512 18.2857 30.4332 18.1933 29.9863 18.3884C29.5395 18.5835 29.25 19.0301 29.25 19.5179V23.2143H22.75C21.8512 23.2143 21.125 23.9484 21.125 24.8571V28.1429C21.125 29.0516 21.8512 29.7857 22.75 29.7857H29.25V33.4821C29.25 33.975 29.5395 34.4165 29.9863 34.6116C30.4332 34.8067 30.9512 34.7143 31.3066 34.3754L38.6191 27.3933Z" fill="white"/>
</svg>
