<svg width="52" height="52" viewBox="0 0 52 52" fill="none" xmlns="http://www.w3.org/2000/svg">
<path d="M0 26C0 11.6406 11.6406 0 26 0C40.3594 0 52 11.6406 52 26C52 40.3594 40.3594 52 26 52C11.6406 52 0 40.3594 0 26Z" fill="#1D9BF0"/>
<path d="M22.3218 20.0182H18.5684V16.0462C18.5684 15.5647 18.2165 15.0833 17.6301 15.0833C17.0436 15.0833 16.809 15.5647 16.809 16.0462V20.0182H12.9383C12.4692 20.0182 12 20.3793 12 20.9811C12 21.5829 12.3519 21.944 12.9383 21.944H16.809V25.916C16.809 26.3975 17.1609 26.879 17.7474 26.879C18.3338 26.879 18.6857 26.5179 18.6857 25.916V21.8237H22.5564C23.0256 21.8237 23.4947 21.4626 23.4947 20.8608C23.4947 20.2589 22.9083 20.0182 22.3218 20.0182ZM39.9158 14.1204V14H39.7985C39.6812 14 29.0075 15.4444 22.9083 28.0826C18.4511 37.2303 18.6857 39.9986 19.0376 39.9986C19.3895 40.119 23.0256 32.175 26.8963 28.9251C32.9955 27.6011 34.6376 24.592 34.6376 24.592C34.6376 24.592 32.8782 24.8328 32.1745 24.8328C31.2361 24.8328 30.5324 24.592 30.1805 24.4717C31.7053 23.0273 32.9955 22.6662 34.2857 22.4255C35.3414 22.1848 36.397 21.944 37.8045 20.9811C40.385 19.0553 40.0331 14.3611 39.9158 14.1204Z" fill="white"/>
</svg>
